<?xml version="1.0" encoding="UTF-8"?>
<svg width="1200pt" height="1200pt" version="1.1" viewBox="0 0 1200 1200" xmlns="http://www.w3.org/2000/svg">
 <g>
  <path d="m980.14 291.93 82.211 151.43-411.05 247.68-40.008-31.355s71.375-81.133 121.15-117.91c49.727-36.758 154.67-68.148 154.67-68.148s75.695-21.637 109.26-61.656l-68.16-137.36z"/>
  <path d="m272.72 274.6-68.16 137.36c33.527 40.008 109.23 61.656 109.23 61.656s104.94 31.391 154.7 68.148c49.754 36.77 119.54 117.36 119.54 117.36l-38.426 31.906-411.02-247.69 82.188-151.43z"/>
  <path d="m211.04 1013.4-14.027-22.715 38.914-81.145s207.7-107.09 194.72-159c0 0-14.062-34.633-43.273-17.328l-87.617 53.039 33.527-62.746 70.32-40.008 175.22 107.06z"/>
  <path d="m304.09 799.07 93.035-53.004c11.867-5.4102 29.207 11.902 29.207 11.902l-107.1 66z"/>
  <path d="m591.8 782.99-546.24-339.65 86.559-174.14 36.754-22.715-89.781 187.12 513.81 311.53z"/>
  <path d="m486.61 521.44c-29.113-20.496-99.422-51.758-153.85-67.715-76.934-22.559-98.496-53.352-98.496-53.352l67.691-133.34c76.934 42.047 108.73 35.902 203.1 88.234 94.391 52.309 95.398 115.89 95.398 115.89s1.0195-63.59 95.438-115.89c94.32-52.32 126.16-46.176 203.1-88.234l67.691 133.34s-21.562 30.781-98.496 53.352c-54.434 15.961-124.74 47.219-153.86 67.715-27.684 19.488-97.43 69.73-113.86 111.8-16.422-42.074-86.176-92.332-113.86-111.8z"/>
  <path d="m989.86 1013.4-367.75-222.84 175.22-107.06 70.32 40.008 33.527 62.746-87.625-53.027c-29.242-17.293-43.262 17.328-43.262 17.328-12.984 51.91 194.68 159 194.68 159l38.965 81.145z"/>
  <path d="m896.84 799.07-15.156 24.898-107.09-66s17.293-17.316 29.207-11.902z"/>
  <path d="m609.1 782.99-1.0586-37.859 513.79-311.53-89.797-187.12 36.781 22.715 86.555 174.14z"/>
 </g>
</svg>
